<svg xmlns="http://www.w3.org/2000/svg" xmlns:xlink="http://www.w3.org/1999/xlink" width="125" height="127" viewBox="0 0 125 127">
  <defs>
    <clipPath id="clip-path">
      <rect id="Rectangle_222" data-name="Rectangle 222" width="125" height="127" transform="translate(435 19.864)" fill="#fff" stroke="#707070" stroke-width="1"/>
    </clipPath>
    <clipPath id="clip-path-2">
      <rect id="Rectangle_221" data-name="Rectangle 221" width="124.5" height="145.858" fill="none"/>
    </clipPath>
  </defs>
  <g id="Mask_Group_27" data-name="Mask Group 27" transform="translate(-435 -19.864)" clip-path="url(#clip-path)">
    <g id="Group_209" data-name="Group 209" transform="translate(435 19.856)">
      <g id="Group_208" data-name="Group 208" transform="translate(0 0)" clip-path="url(#clip-path-2)">
        <path id="Path_576" data-name="Path 576" d="M5.092,199.59a2.954,2.954,0,0,0,2.831-1.64h1.6a4.712,4.712,0,0,1-1.61,2.148,4.635,4.635,0,0,1-2.84.82,4.723,4.723,0,0,1-3.592-1.464A4.994,4.994,0,0,1,.134,195.88a5.082,5.082,0,0,1,1.289-3.572,4.636,4.636,0,0,1,3.552-1.464,4.64,4.64,0,0,1,3.553,1.464,5.081,5.081,0,0,1,1.288,3.572v.586H1.637a3.544,3.544,0,0,0,1.074,2.226,3.3,3.3,0,0,0,2.382.9m-.117-7.418a3.231,3.231,0,0,0-2.264.839,3.474,3.474,0,0,0-1.054,2.09H8.294a3.474,3.474,0,0,0-1.054-2.09,3.231,3.231,0,0,0-2.264-.839" transform="translate(-0.056 -79.465)" fill="#e3e3e3"/>
        <path id="Path_577" data-name="Path 577" d="M26.982,199.2a3.95,3.95,0,0,1-3.494,1.718,4.424,4.424,0,0,1-3.436-1.464,5.6,5.6,0,0,1,0-7.145,4.537,4.537,0,0,1,3.533-1.464,3.874,3.874,0,0,1,3.4,1.737V191h1.464v9.76H26.982Zm-3.3.39a3.091,3.091,0,0,0,2.5-1.093,4.334,4.334,0,0,0,0-5.232,3.091,3.091,0,0,0-2.5-1.093,3.242,3.242,0,0,0-2.538,1.093,4.188,4.188,0,0,0,0,5.232,3.242,3.242,0,0,0,2.538,1.093" transform="translate(-7.813 -79.465)" fill="#e3e3e3"/>
        <path id="Path_578" data-name="Path 578" d="M44.954,193.617q-.2-1.522-2.45-1.522T40.25,193.5a.983.983,0,0,0,.479.888,4.37,4.37,0,0,0,1.2.5q.721.194,1.571.361a8.049,8.049,0,0,1,1.572.469,3.329,3.329,0,0,1,1.2.829,2.068,2.068,0,0,1,.479,1.444,2.494,2.494,0,0,1-1.074,2.177,4.994,4.994,0,0,1-2.909.752,4.64,4.64,0,0,1-3.1-.977,2.984,2.984,0,0,1-1.132-2.245h1.522a2.035,2.035,0,0,0,1.523,1.816,3.41,3.41,0,0,0,1,.156,6.875,6.875,0,0,0,.927-.058,3.774,3.774,0,0,0,.839-.215,1.3,1.3,0,0,0,.937-1.268,1.052,1.052,0,0,0-.478-.928,4.231,4.231,0,0,0-1.2-.527q-.722-.2-1.571-.371a8.528,8.528,0,0,1-1.572-.459,3.344,3.344,0,0,1-1.2-.8,1.966,1.966,0,0,1-.478-1.405,2.434,2.434,0,0,1,.966-2.06,4.693,4.693,0,0,1,2.86-.732,4.3,4.3,0,0,1,2.831.859,2.82,2.82,0,0,1,1,1.913Z" transform="translate(-16.044 -79.465)" fill="#e3e3e3"/>
        <path id="Path_579" data-name="Path 579" d="M57.571,204.738H55.99l1.776-4-3.982-9.624H55.4l3.143,8,3.2-8h1.6Z" transform="translate(-22.395 -79.576)" fill="#e3e3e3"/>
        <path id="Path_580" data-name="Path 580" d="M73.912,191v1.522a4.918,4.918,0,0,1,1.289-1.191,3.155,3.155,0,0,1,1.737-.488,4.65,4.65,0,0,1,1.679.273,3.413,3.413,0,0,1,1.229.82,4.212,4.212,0,0,1,1.21,3.143v5.681H79.593V195.12a2.987,2.987,0,0,0-.762-2.148,2.6,2.6,0,0,0-1.971-.8,2.914,2.914,0,0,0-2.089.819,2.872,2.872,0,0,0-.859,2.148v5.622H72.448V191Z" transform="translate(-30.166 -79.465)" fill="#e3e3e3"/>
        <path id="Path_581" data-name="Path 581" d="M95.3,199.59a2.954,2.954,0,0,0,2.831-1.64h1.6a4.712,4.712,0,0,1-1.61,2.148,4.635,4.635,0,0,1-2.84.82,4.723,4.723,0,0,1-3.592-1.464,4.994,4.994,0,0,1-1.347-3.573,5.079,5.079,0,0,1,1.289-3.572,5.043,5.043,0,0,1,7.1,0,5.082,5.082,0,0,1,1.289,3.572v.586H91.846a3.544,3.544,0,0,0,1.074,2.226,3.3,3.3,0,0,0,2.382.9m-.117-7.418a3.231,3.231,0,0,0-2.264.839,3.474,3.474,0,0,0-1.055,2.09H98.5a3.474,3.474,0,0,0-1.054-2.09,3.231,3.231,0,0,0-2.264-.839" transform="translate(-37.618 -79.465)" fill="#e3e3e3"/>
        <path id="Path_582" data-name="Path 582" d="M110.2,198.379v-8.472H108.2v-1.288H110.2v-3.494h1.464v3.494H113.9v1.288h-2.245v8.472Z" transform="translate(-45.055 -77.083)" fill="#e3e3e3"/>
        <path id="Path_583" data-name="Path 583" d="M135.018,192.563V191h1.464v9.467a4.141,4.141,0,0,1-1.2,3.211,4.591,4.591,0,0,1-3.231,1.1,5.562,5.562,0,0,1-3.172-.781,3.865,3.865,0,0,1-1.552-2.069h1.62q.625,1.522,2.85,1.523a3.322,3.322,0,0,0,2.459-.781,3.174,3.174,0,0,0,.761-2.3v-1.346a3.966,3.966,0,0,1-3.494,1.737,4.453,4.453,0,0,1-3.436-1.444,5.435,5.435,0,0,1,0-7.028,4.579,4.579,0,0,1,3.543-1.444,3.846,3.846,0,0,1,3.387,1.718m-3.3,6.871a3.409,3.409,0,0,0,1.425-.283,3.279,3.279,0,0,0,1.074-.771,4.219,4.219,0,0,0,0-5.154,3.216,3.216,0,0,0-2.5-1.053,3.261,3.261,0,0,0-2.538,1.053,4.078,4.078,0,0,0,0,5.154,3.261,3.261,0,0,0,2.538,1.054" transform="translate(-52.798 -79.465)" fill="#e3e3e3"/>
        <path id="Path_584" data-name="Path 584" d="M152.892,190.845v1.464h-.176a3.126,3.126,0,0,0-2.576,1.269,4.579,4.579,0,0,0-.937,2.889v4.294h-1.464V191H149.2v2.4a3.7,3.7,0,0,1,3.591-2.557Z" transform="translate(-61.516 -79.465)" fill="#e3e3e3"/>
        <path id="Path_585" data-name="Path 585" d="M162.648,190.845a4.639,4.639,0,0,1,3.553,1.464,5.6,5.6,0,0,1,0,7.145,5.042,5.042,0,0,1-7.105,0,5.6,5.6,0,0,1,0-7.145,4.637,4.637,0,0,1,3.552-1.464m0,8.745a3.09,3.09,0,0,0,2.5-1.093,4.334,4.334,0,0,0,0-5.232,3.4,3.4,0,0,0-5,0,4.334,4.334,0,0,0,0,5.232,3.089,3.089,0,0,0,2.5,1.093" transform="translate(-65.709 -79.465)" fill="#e3e3e3"/>
        <path id="Path_586" data-name="Path 586" d="M184.687,200.872V199.35a4.924,4.924,0,0,1-1.288,1.191,3.154,3.154,0,0,1-1.738.488,4.65,4.65,0,0,1-1.679-.274,3.418,3.418,0,0,1-1.23-.82,4.213,4.213,0,0,1-1.21-3.143v-5.681h1.464v5.641a2.986,2.986,0,0,0,.761,2.148,2.6,2.6,0,0,0,1.971.8,2.914,2.914,0,0,0,2.089-.819,2.872,2.872,0,0,0,.859-2.148v-5.622h1.464v9.76Z" transform="translate(-73.926 -79.576)" fill="#e3e3e3"/>
        <path id="Path_587" data-name="Path 587" d="M198.1,192.563a3.951,3.951,0,0,1,3.494-1.718,4.365,4.365,0,0,1,3.416,1.464,5.531,5.531,0,0,1,0,7.145,4.478,4.478,0,0,1-3.513,1.464,3.872,3.872,0,0,1-3.4-1.737v5.446H196.64V191H198.1Zm3.3-.39a3.09,3.09,0,0,0-2.5,1.093,4.334,4.334,0,0,0,0,5.232,3.09,3.09,0,0,0,2.5,1.093,3.246,3.246,0,0,0,2.539-1.093,4.188,4.188,0,0,0,0-5.232,3.246,3.246,0,0,0-2.539-1.093" transform="translate(-81.878 -79.465)" fill="#e3e3e3"/>
        <path id="Path_588" data-name="Path 588" d="M73.818,92.257a46.063,46.063,0,1,1,46.063-46.062A46.115,46.115,0,0,1,73.818,92.257m0-75.542a29.48,29.48,0,1,0,29.48,29.48,29.513,29.513,0,0,0-29.48-29.48" transform="translate(-11.557 -0.055)" fill="#e3e3e3"/>
        <rect id="Rectangle_220" data-name="Rectangle 220" width="15.926" height="15.926" transform="translate(108.574)" fill="#57a121"/>
        <path id="Path_589" data-name="Path 589" d="M10.335,239.131c0,.057-.019.085-.056.085q-.323,0-.52-.015L9,239.188l-.758.013q-.2.015-.52.015c-.028,0-.042-.028-.042-.085s.014-.084.042-.084a1.535,1.535,0,0,0,.562-.077.445.445,0,0,0,.252-.281,1.978,1.978,0,0,0,.071-.611v-2.233a2.074,2.074,0,0,0-.295-1.229,1.061,1.061,0,0,0-.913-.4,1.772,1.772,0,0,0-.849.232,2.831,2.831,0,0,0-.794.653,1.333,1.333,0,0,1,.014.225v2.752a1.987,1.987,0,0,0,.07.618.444.444,0,0,0,.253.274,1.535,1.535,0,0,0,.562.077q.042,0,.042.084c0,.057-.014.085-.042.085q-.323,0-.519-.015l-.759-.013L4.6,239.2q-.183.015-.506.015c-.028,0-.042-.028-.042-.085s.014-.084.042-.084a1.535,1.535,0,0,0,.562-.077.423.423,0,0,0,.246-.274,2.2,2.2,0,0,0,.063-.618v-2.233a2.074,2.074,0,0,0-.295-1.229,1.045,1.045,0,0,0-.9-.4,1.774,1.774,0,0,0-.843.225,2.69,2.69,0,0,0-.772.632v3.005a2.2,2.2,0,0,0,.063.618.422.422,0,0,0,.245.274,1.535,1.535,0,0,0,.562.077c.029,0,.043.028.043.084s-.014.085-.043.085q-.323,0-.505-.015l-.758-.013L1,239.2c-.122.01-.29.015-.506.015-.027,0-.042-.028-.042-.085s.015-.084.042-.084a1.531,1.531,0,0,0,.562-.077A.423.423,0,0,0,1.3,238.7a2.191,2.191,0,0,0,.064-.618V235.3a1.558,1.558,0,0,0-.113-.689.4.4,0,0,0-.379-.21,2.471,2.471,0,0,0-.759.21H.083A.079.079,0,0,1,0,234.546a.068.068,0,0,1,.035-.092l1.629-.772.084-.013q.127,0,.267.322a2.09,2.09,0,0,1,.141.829v.014a3.64,3.64,0,0,1,1.011-.9,2.138,2.138,0,0,1,1.053-.281,1.609,1.609,0,0,1,1.025.309,1.4,1.4,0,0,1,.491.926,3.994,3.994,0,0,1,1.039-.934,2.121,2.121,0,0,1,1.081-.3,1.49,1.49,0,0,1,1.144.428,1.8,1.8,0,0,1,.4,1.271v2.725a2.2,2.2,0,0,0,.063.618.421.421,0,0,0,.246.274,1.533,1.533,0,0,0,.562.077c.037,0,.056.028.056.084" transform="translate(0 -97.29)" fill="#e3e3e3"/>
        <path id="Path_590" data-name="Path 590" d="M26.577,238.458c.037,0,.061.021.07.064a.074.074,0,0,1-.042.091l-1.446.689a.258.258,0,0,1-.113.027c-.122,0-.229-.082-.323-.246a1.7,1.7,0,0,1-.182-.667l-.731.478a3.316,3.316,0,0,1-.618.323,1.612,1.612,0,0,1-.561.1,1.126,1.126,0,0,1-.808-.274.917.917,0,0,1-.288-.7.956.956,0,0,1,.337-.73,3.39,3.39,0,0,1,1.109-.59l1.545-.576v-.955q0-1.573-.885-1.573a.856.856,0,0,0-.723.316,1.723,1.723,0,0,0-.33.723,1.011,1.011,0,0,1-.155.414.428.428,0,0,1-.379.162.453.453,0,0,1-.344-.126.417.417,0,0,1-.119-.295.909.909,0,0,1,.435-.675,3.918,3.918,0,0,1,1.039-.562,3.155,3.155,0,0,1,1.081-.224,1.055,1.055,0,0,1,.871.365,1.641,1.641,0,0,1,.3,1.053V237.7a1.522,1.522,0,0,0,.126.716.443.443,0,0,0,.421.225,1.834,1.834,0,0,0,.688-.183Zm-2.05-.238v-1.573l-1.306.5a1.448,1.448,0,0,0-.569.358.719.719,0,0,0-.176.484.8.8,0,0,0,.218.569.744.744,0,0,0,.568.231,1.424,1.424,0,0,0,.675-.224Z" transform="translate(-8.967 -97.291)" fill="#e3e3e3"/>
        <path id="Path_591" data-name="Path 591" d="M39.2,235.835c0,.057-.014.085-.042.085q-.323,0-.519-.015l-.759-.013-1.011.013q-.225.015-.6.015c-.019,0-.029-.028-.029-.085s.009-.084.029-.084q.7,0,.7-.267a.583.583,0,0,0-.126-.309l-1.727-2.345-.7.547v1.4a1.981,1.981,0,0,0,.07.611.445.445,0,0,0,.253.281,1.528,1.528,0,0,0,.561.077q.042,0,.042.084c0,.057-.014.085-.042.085q-.323,0-.52-.015l-.758-.013-.758.013q-.2.015-.52.015c-.028,0-.042-.028-.042-.085s.014-.084.042-.084a1.535,1.535,0,0,0,.562-.077.446.446,0,0,0,.253-.281,2,2,0,0,0,.07-.611v-7.261a1.962,1.962,0,0,0-.1-.731.352.352,0,0,0-.351-.225,1.8,1.8,0,0,0-.646.2H32.5q-.042,0-.07-.07c-.019-.047-.01-.075.028-.085l1.756-.856.07-.014a.133.133,0,0,1,.085.035.1.1,0,0,1,.042.078v7.3l1.882-1.516q.449-.352.449-.618,0-.35-.8-.351c-.028,0-.042-.029-.042-.085s.014-.085.042-.085q.379,0,.575.015l1.025.013.941-.013q.183-.015.506-.015c.028,0,.042.028.042.085s-.014.085-.042.085a3.126,3.126,0,0,0-1.151.252,5.044,5.044,0,0,0-1.264.759l-.815.645,1.784,2.458a2,2,0,0,0,1.615.969q.042,0,.042.084" transform="translate(-13.499 -93.994)" fill="#e3e3e3"/>
        <path id="Path_592" data-name="Path 592" d="M47.255,237.127c0-.055.009-.083.028-.083a1.593,1.593,0,0,0,.569-.078.444.444,0,0,0,.26-.281,2,2,0,0,0,.07-.611v-2.626a1.853,1.853,0,0,0-.105-.731.367.367,0,0,0-.358-.225,1.455,1.455,0,0,0-.632.2h-.014q-.056,0-.084-.07c-.019-.047-.014-.08.014-.1l1.826-.843.056-.013a.123.123,0,0,1,.071.035.1.1,0,0,1,.042.077c0,.066-.005.253-.014.561s-.014.675-.014,1.1v2.641a1.965,1.965,0,0,0,.07.617.443.443,0,0,0,.253.274,1.527,1.527,0,0,0,.561.078c.028,0,.042.028.042.083s-.014.085-.042.085q-.323,0-.52-.014l-.758-.014-.758.014q-.2.014-.534.014c-.019,0-.028-.028-.028-.085m.751-7.261a.669.669,0,0,1,0-.871.637.637,0,0,1,.457-.155.591.591,0,1,1,0,1.181.635.635,0,0,1-.457-.155" transform="translate(-19.56 -95.286)" fill="#e3e3e3"/>
        <path id="Path_593" data-name="Path 593" d="M61.96,239.1c0,.057-.014.085-.042.085q-.323,0-.505-.015l-.759-.013-.773.013c-.122.01-.29.015-.505.015-.029,0-.042-.028-.042-.085s.013-.084.042-.084a1.536,1.536,0,0,0,.562-.077.424.424,0,0,0,.246-.274,2.2,2.2,0,0,0,.063-.618v-2.275a1.937,1.937,0,0,0-.316-1.222,1.177,1.177,0,0,0-.976-.393,1.88,1.88,0,0,0-.878.232,2.876,2.876,0,0,0-.808.638v3.02a2.218,2.218,0,0,0,.063.618.424.424,0,0,0,.246.274,1.53,1.53,0,0,0,.561.077q.042,0,.042.084c0,.057-.014.085-.042.085q-.323,0-.505-.015l-.758-.013-.773.013q-.183.015-.506.015c-.028,0-.042-.028-.042-.085s.014-.084.042-.084a1.534,1.534,0,0,0,.562-.077.422.422,0,0,0,.246-.274,2.169,2.169,0,0,0,.064-.618v-2.78a1.558,1.558,0,0,0-.113-.689.4.4,0,0,0-.379-.21,2.466,2.466,0,0,0-.758.21H55.19a.079.079,0,0,1-.077-.062.068.068,0,0,1,.035-.092l1.629-.772.084-.013q.127,0,.267.322a2.091,2.091,0,0,1,.141.829,4.08,4.08,0,0,1,1.06-.913,2.2,2.2,0,0,1,1.088-.295,1.606,1.606,0,0,1,1.208.435,1.77,1.77,0,0,1,.421,1.279v2.752a2.2,2.2,0,0,0,.063.618.422.422,0,0,0,.246.274,1.531,1.531,0,0,0,.562.077q.042,0,.042.084" transform="translate(-22.946 -97.26)" fill="#e3e3e3"/>
        <path id="Path_594" data-name="Path 594" d="M74.457,238.976a1.75,1.75,0,0,1,.857.372,1.174,1.174,0,0,1,.393.983,2.3,2.3,0,0,1-.492,1.411,3.458,3.458,0,0,1-1.3,1.04,3.878,3.878,0,0,1-1.692.386,2.44,2.44,0,0,1-1.524-.428,1.347,1.347,0,0,1-.555-1.117q0-1.039,1.447-2.051a1.677,1.677,0,0,1-.815-.288.774.774,0,0,1-.281-.653,1.249,1.249,0,0,1,.239-.751,4.087,4.087,0,0,1,.773-.752,1.818,1.818,0,0,1-.745-.66,1.694,1.694,0,0,1-.267-.927,1.63,1.63,0,0,1,.625-1.306,2.428,2.428,0,0,1,1.608-.519,2.282,2.282,0,0,1,1.461.435,3.491,3.491,0,0,1,.738-.337,2.524,2.524,0,0,1,.765-.112c.019,0,.035.033.049.1a.964.964,0,0,1,.021.21,1.66,1.66,0,0,1-.035.337c-.023.113-.054.159-.092.14a3.42,3.42,0,0,0-.456-.154,1.939,1.939,0,0,0-.484-.057,2.456,2.456,0,0,0-.337.029,1.729,1.729,0,0,1,.478,1.207,1.675,1.675,0,0,1-.274.92,1.918,1.918,0,0,1-.78.681,2.539,2.539,0,0,1-1.151.253,2.609,2.609,0,0,1-.913-.155,1.772,1.772,0,0,0-.4.45.919.919,0,0,0-.12.464.585.585,0,0,0,.19.47,1.294,1.294,0,0,0,.625.231,8.068,8.068,0,0,0,1.221.071,11.1,11.1,0,0,1,1.222.077m-.07,3.258a1.69,1.69,0,0,0,.618-1.37,1.084,1.084,0,0,0-.274-.821,1.31,1.31,0,0,0-.723-.33,8.5,8.5,0,0,0-1.25-.071q-.337,0-.843-.028a2.425,2.425,0,0,0-.709.653,1.539,1.539,0,0,0-.246.892,1.469,1.469,0,0,0,.484,1.158,1.976,1.976,0,0,0,1.356.429,2.4,2.4,0,0,0,1.587-.513m-3.02-7.029a2.348,2.348,0,0,0,.225,1.074,1.606,1.606,0,0,0,.576.66,1.363,1.363,0,0,0,.73.218.968.968,0,0,0,.766-.33,1.5,1.5,0,0,0,.288-1,2.025,2.025,0,0,0-.449-1.384,1.419,1.419,0,0,0-1.109-.512q-1.026,0-1.025,1.278" transform="translate(-29.207 -97.31)" fill="#e3e3e3"/>
        <path id="Path_595" data-name="Path 595" d="M93.175,236.409a.472.472,0,0,0,.33.274,3.113,3.113,0,0,0,.78.071c.029,0,.042.028.042.083s-.013.085-.042.085c-.281,0-.505,0-.674-.015l-1-.013-.969.013q-.253.015-.688.015c-.029,0-.043-.028-.043-.085s.014-.083.043-.083a3.111,3.111,0,0,0,.779-.071.494.494,0,0,0,.337-.274,1.612,1.612,0,0,0,.091-.624v-6.5a1.562,1.562,0,0,0-.091-.618.522.522,0,0,0-.337-.274,2.838,2.838,0,0,0-.779-.078c-.029,0-.043-.028-.043-.084s.014-.084.043-.084l.688.014q.59.028.969.028.422,0,1.011-.028l.66-.014c.029,0,.042.028.042.084s-.013.084-.042.084a2.575,2.575,0,0,0-.766.084.538.538,0,0,0-.337.288,1.6,1.6,0,0,0-.092.625v6.475a1.733,1.733,0,0,0,.085.624" transform="translate(-37.855 -94.996)" fill="#e3e3e3"/>
        <path id="Path_596" data-name="Path 596" d="M101.622,228.555a2.922,2.922,0,0,0-.64,1.531c0,.019-.026.029-.078.029s-.076-.009-.076-.029q.056-.505.126-1.32t.071-1.222c0-.047.025-.071.077-.071s.078.024.078.071q0,.309.758.309,1.193.042,2.823.042.829,0,1.756-.028l.955-.014a2.923,2.923,0,0,0,.751-.071.429.429,0,0,0,.316-.281.076.076,0,0,1,.085-.055c.047,0,.07.019.07.055q-.041.408-.084,1.236t-.042,1.348c0,.019-.029.029-.085.029s-.083-.009-.083-.029a2.416,2.416,0,0,0-.45-1.538,1.764,1.764,0,0,0-1.348-.442,4.941,4.941,0,0,0-.9.057.5.5,0,0,0-.365.238,1.407,1.407,0,0,0-.1.619v6.475a1.5,1.5,0,0,0,.1.632.539.539,0,0,0,.379.267,4,4,0,0,0,.885.071c.029,0,.042.028.042.083s-.013.085-.042.085q-.463,0-.745-.015l-1.095-.013-1.053.013q-.281.015-.772.015c-.019,0-.029-.028-.029-.085s.009-.083.029-.083a4.013,4.013,0,0,0,.885-.071.556.556,0,0,0,.386-.274,1.417,1.417,0,0,0,.106-.624v-6.5a1.358,1.358,0,0,0-.1-.612.494.494,0,0,0-.365-.225,5.724,5.724,0,0,0-.9-.049,1.784,1.784,0,0,0-1.327.449" transform="translate(-41.983 -94.705)" fill="#e3e3e3"/>
        <path id="Path_597" data-name="Path 597" d="M130.468,233.891a2.184,2.184,0,0,1,.787.9,3.049,3.049,0,0,1,.295,1.377,3.158,3.158,0,0,1-.477,1.777,3.051,3.051,0,0,1-1.173,1.074,3.02,3.02,0,0,1-1.369.351,3.26,3.26,0,0,1-.78-.085,2.951,2.951,0,0,1-.709-.28v2.907a1.373,1.373,0,0,0,.105.618.6.6,0,0,0,.4.274,3.886,3.886,0,0,0,.9.077c.019,0,.029.027.029.084s-.009.085-.029.085c-.318,0-.57-.005-.758-.015l-1.025-.014-.772.014c-.131.009-.3.015-.519.015-.029,0-.043-.029-.043-.085s.014-.084.043-.084a1.544,1.544,0,0,0,.561-.077.447.447,0,0,0,.253-.274,1.968,1.968,0,0,0,.071-.618v-6.6a1.679,1.679,0,0,0-.113-.723.4.4,0,0,0-.393-.218,1.859,1.859,0,0,0-.745.2l-.028.013q-.057,0-.077-.07c-.015-.047-.007-.079.021-.1l1.559-.745a.239.239,0,0,1,.1-.014c.131,0,.239.1.323.295a2.388,2.388,0,0,1,.141.843,3.4,3.4,0,0,1,2.36-1.207,1.973,1.973,0,0,1,1.067.309m-.295,4.529a3.033,3.033,0,0,0,.477-1.819,2.878,2.878,0,0,0-.519-1.833,1.617,1.617,0,0,0-1.32-.653,1.823,1.823,0,0,0-.913.239,4.074,4.074,0,0,0-.857.674v3.161a2.909,2.909,0,0,0,.835.659,2.358,2.358,0,0,0,1.074.225,1.455,1.455,0,0,0,1.222-.653" transform="translate(-52.004 -97.26)" fill="#e3e3e3"/>
        <path id="Path_598" data-name="Path 598" d="M141.472,238.968a2.652,2.652,0,0,1-.961-1.082,3.293,3.293,0,0,1-.338-1.482,2.663,2.663,0,0,1,.442-1.552,2.746,2.746,0,0,1,1.138-.955,3.388,3.388,0,0,1,1.411-.316,2.57,2.57,0,0,1,1.447.407,2.691,2.691,0,0,1,.948,1.075,3.137,3.137,0,0,1,.33,1.411,2.818,2.818,0,0,1-.407,1.524,2.788,2.788,0,0,1-1.088,1.011,3.135,3.135,0,0,1-1.482.358,2.614,2.614,0,0,1-1.44-.4m3.041-.414a2.76,2.76,0,0,0,.421-1.685,4.007,4.007,0,0,0-.288-1.559,2.554,2.554,0,0,0-.794-1.074,1.843,1.843,0,0,0-1.151-.387,1.383,1.383,0,0,0-1.173.548,2.566,2.566,0,0,0-.414,1.573,4.274,4.274,0,0,0,.28,1.573,2.769,2.769,0,0,0,.787,1.137,1.73,1.73,0,0,0,1.137.421,1.418,1.418,0,0,0,1.194-.547" transform="translate(-58.366 -97.26)" fill="#e3e3e3"/>
        <path id="Path_599" data-name="Path 599" d="M155.125,235.411a4.74,4.74,0,0,0,.941.611,8.379,8.379,0,0,1,.766.435,1.683,1.683,0,0,1,.47.478,1.254,1.254,0,0,1,.2.716,1.575,1.575,0,0,1-.534,1.208,2.049,2.049,0,0,1-1.446.491,2.3,2.3,0,0,1-1.349-.421.19.19,0,0,1-.084-.169l-.028-1.1c0-.028.026-.044.078-.049s.082.007.091.035a2.566,2.566,0,0,0,.7,1.067,1.479,1.479,0,0,0,.99.365.991.991,0,0,0,.7-.225.793.793,0,0,0,.211-.66,1.094,1.094,0,0,0-.33-.822,4.121,4.121,0,0,0-.948-.6,6.443,6.443,0,0,1-.737-.408,1.625,1.625,0,0,1-.464-.477,1.479,1.479,0,0,1,.379-1.889,2.275,2.275,0,0,1,1.341-.4,2.445,2.445,0,0,1,1.025.211.2.2,0,0,1,.106.063.181.181,0,0,1,.021.091c0,.187-.005.333-.014.435l-.015.59c0,.019-.028.029-.083.029s-.085-.01-.085-.029a.835.835,0,0,0-.225-.554,1.641,1.641,0,0,0-.562-.415,1.607,1.607,0,0,0-.674-.154.783.783,0,0,0-.555.189.743.743,0,0,0-.2.569.991.991,0,0,0,.323.78" transform="translate(-64.148 -97.27)" fill="#e3e3e3"/>
        <path id="Path_600" data-name="Path 600" d="M165.185,235.411a4.75,4.75,0,0,0,.94.611,8.222,8.222,0,0,1,.766.435,1.685,1.685,0,0,1,.47.478,1.259,1.259,0,0,1,.2.716,1.577,1.577,0,0,1-.533,1.208,2.049,2.049,0,0,1-1.446.491,2.3,2.3,0,0,1-1.349-.421.19.19,0,0,1-.084-.169l-.028-1.1c0-.028.026-.044.078-.049s.081.007.091.035a2.56,2.56,0,0,0,.7,1.067,1.479,1.479,0,0,0,.99.365.991.991,0,0,0,.7-.225.791.791,0,0,0,.21-.66,1.094,1.094,0,0,0-.33-.822,4.134,4.134,0,0,0-.948-.6,6.394,6.394,0,0,1-.737-.408,1.611,1.611,0,0,1-.464-.477,1.479,1.479,0,0,1,.379-1.889,2.274,2.274,0,0,1,1.341-.4,2.448,2.448,0,0,1,1.026.211.2.2,0,0,1,.106.063.181.181,0,0,1,.021.091c0,.187-.005.333-.014.435l-.015.59c0,.019-.028.029-.083.029s-.085-.01-.085-.029a.833.833,0,0,0-.225-.554,1.639,1.639,0,0,0-.561-.415,1.61,1.61,0,0,0-.674-.154.783.783,0,0,0-.555.189.743.743,0,0,0-.2.569.991.991,0,0,0,.323.78" transform="translate(-68.336 -97.27)" fill="#e3e3e3"/>
        <path id="Path_601" data-name="Path 601" d="M174.2,237.127c0-.055.009-.083.028-.083a1.582,1.582,0,0,0,.568-.078.446.446,0,0,0,.261-.281,2,2,0,0,0,.07-.611v-2.626a1.841,1.841,0,0,0-.106-.731.366.366,0,0,0-.358-.225,1.455,1.455,0,0,0-.632.2h-.015q-.055,0-.084-.07c-.019-.047-.014-.08.014-.1l1.826-.843.056-.013a.122.122,0,0,1,.07.035.1.1,0,0,1,.042.077c0,.066-.005.253-.013.561s-.015.675-.015,1.1v2.641a1.944,1.944,0,0,0,.071.617.442.442,0,0,0,.252.274,1.533,1.533,0,0,0,.562.078c.029,0,.042.028.042.083s-.013.085-.042.085c-.215,0-.388,0-.52-.014l-.758-.014-.758.014c-.131.009-.309.014-.533.014-.019,0-.028-.028-.028-.085m.751-7.261a.667.667,0,0,1,0-.871.634.634,0,0,1,.456-.155.591.591,0,1,1,0,1.181.632.632,0,0,1-.456-.155" transform="translate(-72.417 -95.286)" fill="#e3e3e3"/>
        <path id="Path_602" data-name="Path 602" d="M187.4,230.61a2.121,2.121,0,0,1,.829.878,3.019,3.019,0,0,1,.309,1.425,3.254,3.254,0,0,1-.443,1.735,2.887,2.887,0,0,1-1.151,1.088,3.231,3.231,0,0,1-1.5.365,3.109,3.109,0,0,1-1.91-.618l-1.067.506h-.029a.066.066,0,0,1-.07-.056.071.071,0,0,1,.028-.085,2.366,2.366,0,0,0,.633-.583,1.431,1.431,0,0,0,.182-.793v-6.939a1.848,1.848,0,0,0-.106-.73.366.366,0,0,0-.358-.224,1.907,1.907,0,0,0-.631.182h-.029q-.042,0-.063-.07c-.015-.047-.007-.075.021-.085l1.756-.856.07-.014a.153.153,0,0,1,.077.035.1.1,0,0,1,.05.078v5.687a5.442,5.442,0,0,1,1.067-.892,2.334,2.334,0,0,1,2.332-.035m-.246,4.592a3.064,3.064,0,0,0,.456-1.812,3.254,3.254,0,0,0-.492-1.938,1.54,1.54,0,0,0-1.306-.674,1.749,1.749,0,0,0-.912.26,4.691,4.691,0,0,0-.9.723v2.3a1.616,1.616,0,0,0,.3,1.011,1.8,1.8,0,0,0,.738.576,2.176,2.176,0,0,0,.842.182,1.478,1.478,0,0,0,1.272-.632" transform="translate(-75.791 -93.994)" fill="#e3e3e3"/>
        <path id="Path_603" data-name="Path 603" d="M196.848,235.835q0-.084.042-.084a1.535,1.535,0,0,0,.562-.077.446.446,0,0,0,.253-.281,2,2,0,0,0,.07-.611v-7.261a1.976,1.976,0,0,0-.1-.731.353.353,0,0,0-.351-.225,1.791,1.791,0,0,0-.645.2h-.029q-.042,0-.063-.07c-.015-.047-.007-.075.021-.085l1.8-.856a.156.156,0,0,1,.07-.014.153.153,0,0,1,.078.035.1.1,0,0,1,.049.078v8.932a2.123,2.123,0,0,0,.063.6.446.446,0,0,0,.246.282,1.411,1.411,0,0,0,.561.084q.042,0,.042.084c0,.057-.014.085-.042.085-.207,0-.375,0-.505-.015l-.787-.013-.758.013q-.2.015-.534.015c-.028,0-.042-.028-.042-.085" transform="translate(-81.853 -93.994)" fill="#e3e3e3"/>
        <path id="Path_604" data-name="Path 604" d="M209.828,238.44a.1.1,0,0,1,.077.049.074.074,0,0,1,.008.091,3.037,3.037,0,0,1-2.051.815,2.406,2.406,0,0,1-2.268-1.376,2.965,2.965,0,0,1-.3-1.32,3.037,3.037,0,0,1,.394-1.524,2.918,2.918,0,0,1,2.57-1.5,1.637,1.637,0,0,1,1.208.421,1.6,1.6,0,0,1,.421,1.18.8.8,0,0,1-.036.281.122.122,0,0,1-.119.084l-3.483.015c-.019.205-.028.374-.028.505a3.188,3.188,0,0,0,.575,1.98,1.912,1.912,0,0,0,1.615.759,2.069,2.069,0,0,0,.723-.113,3.755,3.755,0,0,0,.681-.351Zm-3.034-4.079a2.064,2.064,0,0,0-.52,1.116l2.669-.056a1.665,1.665,0,0,0-.31-1.088,1.035,1.035,0,0,0-.842-.373,1.338,1.338,0,0,0-1,.4" transform="translate(-85.481 -97.301)" fill="#e3e3e3"/>
      </g>
    </g>
  </g>
</svg>
